inDegrees=yes
name=ik_lifting_orientations
DataType=double
version=3
OpenSimVersion=4.5-2024-01-10-34fd6af
endheader
time	pelvis_tilt	pelvis_list	pelvis_rotation	pelvis_tx	pelvis_ty	pelvis_tz	hip_flexion_r	hip_adduction_r	hip_rotation_r	knee_angle_r	knee_angle_r_beta	ankle_angle_r	subtalar_angle_r	mtp_angle_r	hip_flexion_l	hip_adduction_l	hip_rotation_l	knee_angle_l	knee_angle_l_beta	ankle_angle_l	subtalar_angle_l	mtp_angle_l	lumbar_extension	lumbar_bending	lumbar_rotation	arm_flex_r	arm_add_r	arm_rot_r	elbow_flex_r	pro_sup_r	wrist_flex_r	wrist_dev_r	arm_flex_l	arm_add_l	arm_rot_l	elbow_flex_l	pro_sup_l	wrist_flex_l	wrist_dev_l
1.34	-5.204928041610015	27.24715285775093	-72.41485456228897	0	0.9399999998679526	0	44.95640644614414	-10.05634949661535	0	59.9702356730917	1.046678065692408	-5.009493675261355	0	0	44.95640644614414	-10.05634949661535	0	59.9702356730917	1.046678065692408	-5.009493675261355	0	0	35.7229350619917	-5.974491179645432	-17.01302476990391	-8.776094520252407	-0.2156630098255587	6.990014287912663	2.820698195679892	1.518748064814941	0	0	0	-11.64967921513628	0	88.51075074691381	1.518748064814941	0	0
1.35	-5.104258880745915	26.43592231914646	-72.48240391735111	0	0.9399999998679526	0	44.95641900303293	-10.05629350865658	0	59.97024250390601	1.046678184912608	-5.009481401043452	0	0	44.95641900303293	-10.05629350865658	0	59.97024250390601	1.046678184912608	-5.009481401043452	0	0	33.89769848318441	-5.357496125131251	-17.56475054691049	-7.745399848621815	-0.2597689304731784	7.473618133059931	3.024019515553578	1.518442395080098	0	0	0	-11.65017738916916	0	88.51105044165679	1.518442395080098	0	0
1.36	-5.067829303040991	25.56717633447323	-72.46581881156774	0	0.9399999998679526	0	44.9564668876163	-10.05608124895746	0	59.97026854869599	1.046678639479946	-5.009434989287144	0	0	44.9564668876163	-10.05608124895746	0	59.97026854869599	1.046678639479946	-5.009434989287144	0	0	31.9483423197539	-4.680523303669868	-18.02612250268238	-6.571310916727445	-0.4724441044754411	7.46350589291306	3.622403629019213	1.517276312180772	0	0	0	-11.65207790894289	0	88.51219373090284	1.517276312180772	0	0
1.37	-5.067244863267093	24.73137802345485	-72.37534269918977	0	0.9399999998679526	0	44.95652802847408	-10.05580859005508	0	59.97030158302655	1.046679216037781	-5.009375337377543	0	0	44.95652802847408	-10.05580859005508	0	59.97030158302655	1.046679216037781	-5.009375337377543	0	0	30.05626181576248	-4.015126148344895	-18.49703771514439	-5.362352025947276	-0.633894944215548	7.216646902627534	4.36775721338436	1.515790878295716	0	0	0	-11.65449396071061	0	88.51365012855756	1.515790878295716	0	0
1.38	-5.102156134407911	23.84555389349471	-72.2890174799777	0	0.9399999998679526	0	44.95659576942285	-10.05550716813354	0	59.97033815891673	1.046679854407491	-5.00930947290023	0	0	44.95659576942285	-10.05550716813354	0	59.97033815891673	1.046679854407491	-5.00930947290023	0	0	28.05633425779227	-3.277819061601065	-19.01795393090557	-3.888336291236909	-0.737816270727463	6.996528374245788	5.013074673180372	1.514145022309122	0	0	0	-11.65717075324961	0	88.51526381250723	1.514145022309122	0	0
1.39	-5.079484797693109	22.76446312326059	-72.21969638160685	0	0.9399999998679526	0	44.95665679425603	-10.05523624237582	0	59.97037109847864	1.046680429311301	-5.009250338704462	0	0	44.95665679425603	-10.05523624237582	0	59.97037109847864	1.046680429311301	-5.009250338704462	0	0	25.92581577842248	-2.560527438909371	-19.40817879036522	-2.416930345163118	-0.9718772894603485	6.559880963119207	5.655822601907609	1.512662105627557	0	0	0	-11.65958267397745	0	88.51671774219673	1.512662105627557	0	0
1.4	-4.938057675835041	21.5815875592179	-72.34409892776037	0	0.9399999998679526	0	44.95728985844406	-10.05335133017342	0	59.97080417273368	1.046687987882957	-5.008876620233737	0	0	44.95728985844406	-10.05335133017342	0	59.97080417273368	1.046687987882957	-5.008876620233737	0	0	23.6669071303739	-1.817482273562252	-19.72686790012631	-0.9050310327484673	-1.294381372885648	6.454698553923022	6.731036578470988	1.495674408879265	0	0	0	-11.68944409169237	0	88.53337345357767	1.495674408879265	0	0
1.41	-4.820330706448451	20.40275414875804	-72.49301546563962	0	0.9399999998679526	0	44.95767181482081	-10.05222417655903	0	59.97106659416564	1.046692568000972	-5.008653203728813	0	0	44.95767181482081	-10.05222417655903	0	59.97106659416564	1.046692568000972	-5.008653203728813	0	0	21.95103620218304	-1.311750558457978	-19.92654375408847	-0.05118104562563517	-2.543799977549656	6.47295420899302	8.498895083659228	1.485393419301241	0	0	0	-11.70756023894917	0	88.54345352634378	1.485393419301241	0	0
1.42	-4.627516656321788	19.2211249512937	-72.64642295524037	0	0.9399999998679526	0	44.95811818529582	-10.05091862035576	0	59.97137254304641	1.046697907816285	-5.008395297705792	0	0	44.95811818529582	-10.05091862035576	0	59.97137254304641	1.046697907816285	-5.008395297705792	0	0	19.67149232548624	-0.6111015207800558	-19.99595279460558	1.606859517012621	-3.961639237359249	6.419534405358645	10.11766742825661	1.473363676903509	0	0	0	-11.72877416344214	0	88.55524817736165	1.473363676903509	0	0
1.43	-4.352313889057102	17.93245115209261	-72.78881743326637	0	0.9399999998679526	0	44.95855121032088	-10.04967323913024	0	59.97166967081531	1.046703093674151	-5.008150633378039	0	0	44.95855121032088	-10.04967323913024	0	59.97166967081531	1.046703093674151	-5.008150633378039	0	0	17.3471058787868	0.008678395820358537	-20.36348488572225	3.213477535925529	-5.427016666096495	6.842087007021569	11.99062456663213	1.46165957084414	0	0	0	-11.74945488211529	0	88.56672355710411	1.46165957084414	0	0
1.44	-4.082304398926345	16.65031344467286	-72.94032342292414	0	0.9399999998679526	0	44.95895066207773	-10.04853602842333	0	59.97194324991662	1.046707868530234	-5.007928018298186	0	0	44.95895066207773	-10.04853602842333	0	59.97194324991662	1.046707868530234	-5.007928018298186	0	0	15.03578158748979	0.6418295439677716	-20.44397825219005	4.913481037616705	-7.109166281639686	7.294005307189377	13.84564120142748	1.450845778450595	0	0	0	-11.76858216087924	0	88.57732602265637	1.450845778450595	0	0
1.45	-3.747023663007066	15.30060857914706	-73.20745671265811	0	0.9399999998679526	0	44.95932295104792	-10.04748898812637	0	59.9721981355198	1.046712317123225	-5.007723892490133	0	0	44.95932295104792	-10.04748898812637	0	59.9721981355198	1.046712317123225	-5.007723892490133	0	0	12.70419717404414	1.245870783432382	-20.40119810212023	6.5450544914615	-8.995950713246588	7.926293031020702	15.73072294331974	1.440746750840107	0	0	0	-11.78646967798301	0	88.58722769235621	1.440746750840107	0	0
1.46	-3.446097248099634	13.95636371080721	-73.34487450636799	0	0.9399999998679526	0	44.95965965275058	-10.04655636951013	0	59.97242898012017	1.046716346121562	-5.007542972384209	0	0	44.95965965275058	-10.04655636951013	0	59.97242898012017	1.046716346121562	-5.007542972384209	0	0	10.38950744155505	1.838833891696658	-20.44835131356911	8.42657703747987	-10.85326511846791	8.949184587683096	17.31472771617508	1.431588645980616	0	0	0	-11.80272039788218	0	88.59620682796691	1.431588645980616	0	0
1.47	-3.108438559332924	12.61259805852885	-73.40938368369331	0	0.9399999998679526	0	44.95998237230138	-10.04567011410204	0	59.97264997823352	1.046720203266281	-5.007371556445105	0	0	44.95998237230138	-10.04567011410204	0	59.97264997823352	1.046720203266281	-5.007371556445105	0	0	8.047590813295404	2.393539216802194	-20.56109879293059	10.56169703794284	-12.6242245687625	10.18354830393787	18.76455634299988	1.422798773267912	0	0	0	-11.8183318347783	0	88.60482492790193	1.422798773267912	0	0
1.48	-2.75997681364225	11.4182677284537	-73.40801195312132	0	0.9399999998679526	0	44.96028924846035	-10.04483069736881	0	59.97285948538874	1.046723859855946	-5.007209462298346	0	0	44.96028924846035	-10.04483069736881	0	59.97285948538874	1.046723859855946	-5.007209462298346	0	0	5.924210728727443	2.86296118375251	-20.80347321750755	12.75383863421413	-14.32212337267224	11.44747866004668	20.02753102669976	1.414436523642158	0	0	0	-11.83318756101047	0	88.61302376152287	1.414436523642158	0	0
1.49	-2.433901365493443	10.27773910068894	-73.36403183636445	0	0.9399999998679526	0	44.96050923892632	-10.04423167134144	0	59.97300935852971	1.046726475635716	-5.007093978650171	0	0	44.96050923892632	-10.04423167134144	0	59.97300935852971	1.046726475635716	-5.007093978650171	0	0	4.736380432952706	2.877857043181653	-21.14637962762485	14.09039410122134	-15.90225866349766	12.68971914508959	21.27733123042912	1.408437821086144	0	0	0	-11.84384892649566	0	88.61890523690083	1.408437821086144	0	0
1.5	-2.17459468693953	9.210725521872209	-73.21374074508439	0	0.9399999998679526	0	44.96067268032545	-10.04378947528151	0	59.97312066403651	1.046728418283285	-5.007008916318282	0	0	44.96067268032545	-10.04378947528151	0	59.97312066403651	1.046728418283285	-5.007008916318282	0	0	4.70286135680275	2.330497414847451	-21.48785260098768	14.297247217399	-17.24703356959244	13.6769908508283	22.44912301626725	1.403976387456604	0	0	0	-11.85178373580057	0	88.62327948495886	1.403976387456604	0	0
1.51	-1.919288074621097	8.247765317414354	-73.12048299615786	0	0.9399999998679526	0	44.96083664840278	-10.0433470368332	0	59.97323216923525	1.046730364416136	-5.006923900072442	0	0	44.96083664840278	-10.0433470368332	0	59.97323216923525	1.046730364416136	-5.006923900072442	0	0	4.745787288905443	1.777452999011107	-21.7581908867963	14.56546281170705	-18.61186955085648	14.60508645278296	24.01249184835696	1.399499125372668	0	0	0	-11.85974816199203	0	88.62766925219508	1.399499125372668	0	0
1.52	-1.702420216390642	7.342691560359065	-72.95881661346085	0	0.9399999998679526	0	44.96100111203049	-10.04290289860606	0	59.97334364610789	1.046732310054604	-5.006838572160498	0	0	44.96100111203049	-10.04290289860606	0	59.97334364610789	1.046732310054604	-5.006838572160498	0	0	4.795214343850621	1.267508709907901	-21.80856794288051	14.94369059199481	-19.95930554817809	15.12262165797375	25.82908708600177	1.395010270266238	0	0	0	-11.86773022621363	0	88.63207038582259	1.395010270266238	0	0
1.53	-1.572310846748989	6.472952617190776	-72.2220758995657	0	0.9399999998679526	0	44.96115952785468	-10.0424816392965	0	59.97345150895333	1.046734192616397	-5.0067580198008	0	0	44.96115952785468	-10.0424816392965	0	59.97345150895333	1.046734192616397	-5.0067580198008	0	0	4.947467783221091	0.726901704896017	-22.50816419035658	15.44567665434729	-21.12243719920242	15.49732024056627	27.58611093749669	1.390673853326739	0	0	0	-11.87545715865024	0	88.63632206068725	1.390673853326739	0	0
1.54	-1.447747429057924	5.620000014803296	-71.48771981452875	0	0.9399999998679526	0	44.9613253541906	-10.04204241662262	0	59.97356432794513	1.046736161679263	-5.006674154785666	0	0	44.9613253541906	-10.04204241662262	0	59.97356432794513	1.046736161679263	-5.006674154785666	0	0	4.881178868152855	0.3300962480414929	-23.39270005232999	16.36901466475941	-22.23303622991273	15.97256380675772	29.64304449959115	1.38613192163632	0	0	0	-11.88355331969516	0	88.64077523422904	1.38613192163632	0	0
1.55	-1.264061740796991	4.804899199176026	-71.19177461674255	0	0.9399999998679526	0	44.96148839823152	-10.04161426589025	0	59.97367540694427	1.046738100373528	-5.006592628640347	0	0	44.96148839823152	-10.04161426589025	0	59.97367540694427	1.046738100373528	-5.006592628640347	0	0	4.809849865344747	-0.0948784000031254	-23.85084483057165	17.37755948861257	-23.29771223198727	16.50183860221717	32.20363016534898	1.381659287760884	0	0	0	-11.89153450919884	0	88.64516046440653	1.381659287760884	0	0
